<?xml version="1.0" encoding="utf-8"?>
<!-- Generator: Adobe Illustrator 28.4.1, SVG Export Plug-In . SVG Version: 6.00 Build 0)  -->
<svg version="1.1" id="Layer_1" xmlns="http://www.w3.org/2000/svg" xmlns:xlink="http://www.w3.org/1999/xlink" x="0px" y="0px"
	 width="36px" height="24px" viewBox="0 0 36 24" style="enable-background:new 0 0 36 24;" xml:space="preserve">
<style type="text/css">
	.st0{fill:#78B9F3;}
	.st1{fill:url(#SVGID_1_);}
	.st2{fill:#3256DE;}
	.st3{fill:#FFFFFF;}
</style>
<g>
	<g>
		<path d="M18.8,20.7c-0.9,0-1.6-0.7-1.6-1.6c0-0.9,0.7-1.6,1.6-1.6c3.1,0,5.6-2.5,5.6-5.6c0-3.1-2.5-5.6-5.6-5.6
			c-0.9,0-1.6-0.7-1.6-1.6s0.7-1.6,1.6-1.6c4.8,0,8.8,3.9,8.8,8.8S23.6,20.7,18.8,20.7z"/>
	</g>
	<g>
		<path d="M18.8,20.7H11c-0.9,0-1.6-0.7-1.6-1.6s0.7-1.6,1.6-1.6h7.8c0.9,0,1.6,0.7,1.6,1.6S19.7,20.7,18.8,20.7z"/>
	</g>
	<g>
		<path d="M3.1,20.7c-0.3,0-0.5-0.1-0.7-0.2c-0.8-0.4-1.1-1.4-0.7-2.2L9.2,4c0.3-0.5,0.8-0.8,1.4-0.9c0.6,0,1.1,0.3,1.4,0.8
			l8.3,14.4c0.4,0.8,0.2,1.7-0.6,2.2c-0.8,0.4-1.7,0.2-2.2-0.6L10.6,8L4.5,19.8C4.2,20.4,3.7,20.7,3.1,20.7z"/>
	</g>
	<g>
		<path d="M33.2,20.7c-4.8,0-8.8-3.9-8.8-8.8s3.9-8.8,8.8-8.8c0.9,0,1.6,0.7,1.6,1.6S34,6.3,33.2,6.3c-3.1,0-5.6,2.5-5.6,5.6
			c0,3.1,2.5,5.6,5.6,5.6c0.9,0,1.6,0.7,1.6,1.6C34.8,20,34,20.7,33.2,20.7z"/>
	</g>
</g>
</svg>
