<svg width="163" height="86" viewBox="0 0 163 86" fill="none" xmlns="http://www.w3.org/2000/svg">
<path d="M84.5377 85.3582C80.4699 85.3582 77.1817 82.0701 77.1817 78.0023C77.1817 73.9345 80.4699 70.6464 84.5377 70.6464C99.9614 70.6464 112.47 58.104 112.47 42.7142C112.47 27.3243 99.9275 14.782 84.5377 14.782C80.4699 14.782 77.1817 11.4938 77.1817 7.42604C77.1817 3.35824 80.4699 0.0362073 84.5377 0.0362073C108.063 0.0362073 127.216 19.1888 127.216 42.7142C127.216 66.2396 108.063 85.3921 84.5377 85.3921V85.3582Z" fill="#6DB2F2"/>
<path d="M84.4698 85.3583H46.063C41.9952 85.3583 38.7071 82.0702 38.7071 78.0024C38.7071 73.9346 41.9952 70.6464 46.063 70.6464H84.4698C88.5376 70.6464 91.8257 73.9346 91.8257 78.0024C91.8257 82.0702 88.5376 85.3583 84.4698 85.3583Z" fill="#6DB2F2"/>
<path d="M7.35114 85.3583C6.1986 85.3583 5.04605 85.0871 3.96131 84.5108C0.368088 82.6464 -1.05564 78.1718 0.842664 74.5786L37.6901 3.96842C38.9105 1.59554 41.3511 0.0701151 44.0291 0.00231846C46.7071 -0.0654781 49.2155 1.35825 50.5715 3.66334L91.5884 74.3074C93.6223 77.8328 92.4359 82.3413 88.9105 84.3752C85.385 86.4091 80.8766 85.2227 78.8427 81.6972L44.5376 22.6125L13.8935 81.4261C12.5715 83.9345 10.0291 85.3922 7.35114 85.3922V85.3583Z" fill="url(#paint0_linear_4930_89)"/>
<path d="M155.148 85.3582C131.622 85.3582 112.47 66.2057 112.47 42.6803C112.47 19.1549 131.622 0.0362073 155.148 0.0362073C159.216 0.0362073 162.504 3.32434 162.504 7.39214C162.504 11.4599 159.216 14.7481 155.148 14.7481C139.724 14.7481 127.216 27.2904 127.216 42.6803C127.216 58.0701 139.758 70.6125 155.148 70.6125C159.216 70.6125 162.504 73.9006 162.504 77.9684C162.504 82.0362 159.216 85.3243 155.148 85.3243V85.3582Z" fill="#2B4CDA"/>
<defs>
<linearGradient id="paint0_linear_4930_89" x1="92.6054" y1="42.6803" x2="-0.00479136" y2="42.6803" gradientUnits="userSpaceOnUse">
<stop offset="0.51" stop-color="#6DB2F2"/>
<stop offset="1" stop-color="#2B4CDA"/>
</linearGradient>
</defs>
</svg>
